<?xml version="1.0" standalone="no"?>
<!DOCTYPE svg PUBLIC "-//W3C//DTD SVG 20010904//EN"
 "http://www.w3.org/TR/2001/REC-SVG-20010904/DTD/svg10.dtd">
<svg version="1.0" xmlns="http://www.w3.org/2000/svg"
 width="512.000000pt" height="512.000000pt" viewBox="0 0 512.000000 512.000000"
 preserveAspectRatio="xMidYMid meet">
<metadata>
Created by potrace 1.11, written by Peter Selinger 2001-2013
</metadata>
<g transform="translate(0.000000,512.000000) scale(0.100000,-0.100000)"
fill="#000000" stroke="none">
<path d="M2406 4333 c-1 -1 -31 -5 -66 -8 -36 -3 -76 -7 -90 -9 -14 -2 -47 -7
-73 -11 -362 -49 -752 -263 -988 -540 -250 -293 -394 -627 -435 -1005 -5 -49
-4 -287 1 -330 4 -32 11 -85 20 -150 27 -191 155 -482 265 -600 18 -19 28 -28
23 -20 -34 50 -148 375 -137 391 3 5 1 9 -4 9 -4 0 -14 28 -21 63 -6 34 -14
73 -17 87 -17 88 -22 175 -19 325 2 94 6 181 9 195 4 14 9 39 12 55 16 93 59
238 91 312 9 21 18 44 19 50 4 22 83 164 132 236 113 169 309 354 486 460 123
73 305 149 456 190 120 33 154 40 285 57 66 8 326 5 365 -5 14 -4 41 -9 60
-12 108 -15 296 -85 404 -150 203 -122 349 -288 435 -498 18 -44 35 -82 37
-84 5 -5 -5 169 -12 199 -3 14 -8 38 -10 54 -10 53 -55 169 -91 234 -61 111
-164 224 -272 299 -25 18 -50 36 -56 40 -5 5 -50 27 -100 50 -129 59 -238 92
-360 109 -46 6 -343 12 -349 7z"/>
<path d="M2609 3796 c-3 -3 -72 -7 -154 -10 -83 -2 -170 -9 -195 -15 -25 -5
-58 -12 -74 -15 -226 -40 -484 -192 -696 -407 -80 -82 -97 -103 -165 -204
-102 -153 -202 -392 -220 -530 -2 -11 -6 -33 -9 -50 -3 -16 -9 -61 -12 -100
-3 -38 -11 -76 -17 -84 -8 -10 -8 -13 -1 -8 8 4 11 -17 11 -71 -1 -349 116
-731 298 -977 161 -218 369 -365 645 -455 110 -37 143 -45 220 -56 19 -3 41
-7 49 -10 72 -24 535 -23 560 2 2 2 11 -2 19 -9 9 -6 13 -7 10 -2 -4 7 27 18
80 28 528 108 987 473 1232 980 79 165 138 339 156 457 3 19 7 41 10 49 16 47
22 286 11 409 -7 78 -26 202 -31 211 -2 3 -7 22 -10 41 -9 56 -62 221 -104
324 -40 96 -87 182 -128 233 l-22 28 18 -65 c10 -36 34 -117 53 -180 84 -274
102 -377 102 -600 0 -137 -8 -269 -19 -301 -3 -8 -7 -27 -10 -44 -3 -16 -10
-50 -16 -75 -7 -25 -13 -52 -15 -61 -8 -41 -87 -234 -98 -241 -6 -4 -9 -8 -4
-8 4 0 -9 -30 -29 -67 -158 -290 -410 -529 -707 -672 -96 -46 -289 -116 -353
-127 -16 -3 -45 -9 -64 -14 -19 -5 -60 -12 -90 -16 -30 -3 -58 -8 -62 -11 -10
-5 -287 -5 -313 1 -11 3 -23 5 -27 5 -3 1 9 27 28 58 43 72 81 191 129 403 42
188 82 300 148 421 100 185 221 321 367 416 100 65 111 74 105 84 -10 15 -52
11 -185 -17 -76 -16 -159 -26 -212 -26 -75 -1 -92 3 -130 25 -24 14 -54 37
-67 51 -22 24 -23 28 -10 42 14 13 20 11 60 -21 85 -67 154 -71 354 -18 43 11
143 14 217 6 119 -14 313 34 368 90 44 45 85 134 85 187 0 67 -30 102 -128
149 -45 21 -116 55 -158 75 -52 24 -101 59 -156 110 -196 180 -489 280 -632
216 -52 -24 -63 -24 -100 -6 -65 34 -83 109 -44 195 22 51 83 140 122 180 41
42 71 83 65 92 -5 9 -47 13 -55 5z m-239 -187 c-32 -45 -77 -118 -100 -163
-34 -69 -40 -92 -41 -147 -2 -120 39 -210 103 -225 96 -22 195 11 301 98 46
39 47 39 47 15 0 -18 -19 -42 -65 -86 -88 -81 -112 -93 -198 -92 -92 1 -165
23 -201 60 -24 25 -28 36 -25 75 3 28 0 46 -7 46 -14 0 -107 -80 -239 -205
-147 -140 -262 -246 -331 -305 -85 -73 -268 -202 -276 -194 -7 6 17 154 31
197 7 19 13 43 15 53 16 76 128 324 147 324 5 0 8 4 5 8 -12 20 170 231 264
307 109 86 253 168 388 220 52 20 101 40 110 44 24 12 116 49 124 50 4 1 -19
-35 -52 -80z m658 -572 c2 -26 -1 -39 -12 -43 -21 -8 -56 1 -81 21 -20 15 -20
15 9 41 18 16 38 24 55 22 22 -3 26 -8 29 -41z m458 -179 c-22 -31 -20 -38 13
-38 35 0 60 -25 42 -43 -10 -9 -14 -8 -22 6 -13 23 -29 22 -29 -3 0 -24 -22
-26 -44 -4 -28 27 -15 66 29 92 28 16 28 15 11 -10z m-1551 -1032 c121 -100
180 -193 190 -301 2 -16 6 -108 9 -202 l6 -173 -33 16 c-19 9 -34 21 -34 28
-1 28 -18 169 -28 231 -8 49 -49 180 -75 241 -12 26 -51 75 -97 121 -43 43
-94 98 -113 122 l-35 45 80 -43 c44 -24 102 -62 130 -85z"/>
<path d="M3050 3544 c-14 -44 -39 -89 -66 -123 -24 -29 -44 -57 -44 -62 0 -32
117 -36 148 -5 23 23 23 187 0 230 l-15 29 -23 -69z"/>
</g>
</svg>
